<svg xmlns="http://www.w3.org/2000/svg" viewBox="0 0 44 42"><g fill="none" fill-rule="nonzero"><path fill="#288D87" d="M37.973 34.221L22 41.094V21.678l15.973-6.872z"/><path fill="#288D87" d="M21.973 8l15.972 6.95-15.972 6.949L6 14.95z"/><path fill="#288D87" d="M6.027 34.221V14.806L22 21.678v19.416z"/><path fill="#FFF" d="M30.729 29.914c-.826 0-1.496.672-1.496 1.5s.67 1.5 1.496 1.5 1.496-.672 1.496-1.5-.67-1.5-1.496-1.5zM24 15.504c0-.83-.672-1.504-1.5-1.504s-1.5.673-1.5 1.504c0 .83.672 1.504 1.5 1.504s1.5-.674 1.5-1.504zm-10.545 17.41c.826 0 1.496-.672 1.496-1.5s-.67-1.5-1.496-1.5-1.496.672-1.496 1.5.67 1.5 1.496 1.5z"/><path fill="#288D87" d="M38.843 33.662v-18.97a.868.868 0 00-.527-.798L22.859 7.21V.864A.861.861 0 0022 0a.862.862 0 00-.86.864V7.21L5.685 13.894a.87.87 0 00-.527.798v18.97L.51 35.737a.867.867 0 00-.437 1.141.858.858 0 001.135.439l4.812-2.15 15.64 6.764c.206.09.46.095.679 0l15.639-6.764 4.812 2.15a.858.858 0 001.135-.439.866.866 0 00-.437-1.14l-4.646-2.076zM21.141 9.09v2.144c0 .477.384.864.859.864.474 0 .86-.387.86-.864V9.091l12.95 5.601L22 20.665 8.19 14.692l12.95-5.601zm-9.747 22.73a.858.858 0 00-1.134-.44l-3.385 1.514v-16.89l14.266 6.17v17.65L8.16 34.21l2.797-1.25a.864.864 0 00.436-1.14zm11.465 8.005v-17.65l14.266-6.17v16.889L33.74 31.38a.856.856 0 00-1.134.439.865.865 0 00.436 1.14l2.797 1.25-12.98 5.615z"/></g></svg>