<svg xmlns="http://www.w3.org/2000/svg" viewBox="0 0 46 44"><g fill="#090B0A" fill-rule="nonzero"><path d="M31.137 30.914a.906.906 0 000 1.813.906.906 0 000-1.813zm-7.233-15.108c0-.5-.405-.907-.904-.907a.906.906 0 000 1.813.905.905 0 00.904-.906zm-9.041 16.921a.906.906 0 000-1.813.905.905 0 000 1.813z"/><path stroke="#090B0A" stroke-width=".5" d="M44.49 36.737l-4.647-2.075v-18.97a.868.868 0 00-.527-.798L23.859 8.21V1.864A.861.861 0 0023 1a.862.862 0 00-.86.864V8.21L6.685 14.894a.87.87 0 00-.527.798v18.97L1.51 36.737a.867.867 0 00-.437 1.141.858.858 0 001.135.439l4.812-2.15 15.64 6.764c.206.09.46.095.679 0l15.639-6.764 4.812 2.15a.858.858 0 001.135-.439.866.866 0 00-.437-1.14h0zM22.14 10.091v2.144c0 .477.385.864.86.864.474 0 .86-.387.86-.864v-2.144l12.95 5.601L23 21.665 9.19 15.692l12.95-5.601zM12.395 32.82a.858.858 0 00-1.134-.44l-3.385 1.514v-16.89l14.266 6.17v17.65L9.16 35.21l2.797-1.25a.864.864 0 00.436-1.14zm11.465 8.005v-17.65l14.266-6.17v16.889L34.74 32.38a.856.856 0 00-1.134.439.865.865 0 00.436 1.14l2.797 1.25-12.98 5.615z"/></g></svg>