<svg viewBox="0 0 20 20" xmlns="http://www.w3.org/2000/svg"><path d="m18.558 0h-17.116c-.796 0-1.442.646-1.442 1.442v17.116c0 .796.646 1.442 1.442 1.442h17.116c.796 0 1.442-.646 1.442-1.442v-17.116c0-.796-.646-1.442-1.442-1.442zm-11.464 15.117h-2.434v-7.327h2.435v7.327zm-1.218-8.327h-.015c-.818 0-1.346-.563-1.346-1.266 0-.72.545-1.266 1.378-1.266s1.345.547 1.361 1.266c0 .703-.528 1.266-1.378 1.266zm10 8.327h-2.436v-3.92c0-.985-.353-1.657-1.234-1.657-.673 0-1.074.454-1.25.891-.064.157-.08.375-.08.594v4.092h-2.434s.032-6.64 0-7.327h2.435v1.038c.324-.5.903-1.21 2.195-1.21 1.602 0 2.804 1.047 2.804 3.298z" fill="#fff"/></svg>