<svg xmlns="http://www.w3.org/2000/svg" viewBox="0 0 26 26"><path fill="#288D87" fill-rule="nonzero" d="M24.2 0h-2.4A1.8 1.8 0 0020 1.8v2.4A1.8 1.8 0 0021.8 6h2.4A1.8 1.8 0 0026 4.2V1.8A1.8 1.8 0 0024.2 0zm-10 0h-2.4A1.8 1.8 0 0010 1.8v2.4A1.8 1.8 0 0011.8 6h2.4A1.8 1.8 0 0016 4.2V1.8A1.8 1.8 0 0014.2 0zm-10 0H1.8A1.8 1.8 0 000 1.8v2.4A1.8 1.8 0 001.8 6h2.4A1.8 1.8 0 006 4.2V1.8A1.8 1.8 0 004.2 0zm20 20h-2.4a1.8 1.8 0 00-1.8 1.8v2.4a1.8 1.8 0 001.8 1.8h2.4a1.8 1.8 0 001.8-1.8v-2.4a1.8 1.8 0 00-1.8-1.8zm-10 0h-2.4a1.8 1.8 0 00-1.8 1.8v2.4a1.8 1.8 0 001.8 1.8h2.4a1.8 1.8 0 001.8-1.8v-2.4a1.8 1.8 0 00-1.8-1.8zm-10 0H1.8A1.8 1.8 0 000 21.8v2.4A1.8 1.8 0 001.8 26h2.4A1.8 1.8 0 006 24.2v-2.4A1.8 1.8 0 004.2 20zm20-10h-2.4a1.8 1.8 0 00-1.8 1.8v2.4a1.8 1.8 0 001.8 1.8h2.4a1.8 1.8 0 001.8-1.8v-2.4a1.8 1.8 0 00-1.8-1.8zm-10 0h-2.4a1.8 1.8 0 00-1.8 1.8v2.4a1.8 1.8 0 001.8 1.8h2.4a1.8 1.8 0 001.8-1.8v-2.4a1.8 1.8 0 00-1.8-1.8zm-10 0H1.8A1.8 1.8 0 000 11.8v2.4A1.8 1.8 0 001.8 16h2.4A1.8 1.8 0 006 14.2v-2.4A1.8 1.8 0 004.2 10z"/></svg>