<svg xmlns="http://www.w3.org/2000/svg" viewBox="0 0 20 14"><path fill="#FFF" fill-rule="nonzero" d="M19.558 2l.025.162a2.522 2.522 0 00-1.724-1.74l-.017-.004C16.282 0 10.008 0 10.008 0S3.75-.008 2.175.418A2.52 2.52 0 00.44 2.144l-.004.018C-.147 5.168-.15 8.782.461 12l-.026-.163a2.52 2.52 0 001.724 1.74l.017.004C3.734 14 10.01 14 10.01 14s6.258 0 7.834-.42a2.517 2.517 0 001.736-1.725l.004-.018c.265-1.398.417-3.007.417-4.65v-.373c0-1.644-.152-3.253-.442-4.814zM8.007 10.007V4l5.221 3.007-5.221 2.999z"/></svg>