<svg xmlns="http://www.w3.org/2000/svg" viewBox="0 0 20 20"><path fill="#FFF" fill-rule="nonzero" d="M10 5.938a4.106 4.106 0 00-4.102 4.101A4.106 4.106 0 0010 14.141a4.106 4.106 0 004.102-4.102A4.106 4.106 0 0010 5.938zm0 0a4.106 4.106 0 00-4.102 4.101A4.106 4.106 0 0010 14.141a4.106 4.106 0 004.102-4.102A4.106 4.106 0 0010 5.938zM17.07 0H2.93A2.93 2.93 0 000 2.93v14.14A2.932 2.932 0 002.93 20h14.14A2.932 2.932 0 0020 17.07V2.93A2.93 2.93 0 0017.07 0zM10 15.313c-2.906 0-5.273-2.368-5.273-5.274S7.094 4.766 10 4.766a5.281 5.281 0 015.273 5.273A5.282 5.282 0 0110 15.313zm6.445-10.547a1.176 1.176 0 01-1.172-1.172c0-.645.528-1.172 1.172-1.172.645 0 1.172.527 1.172 1.172 0 .644-.527 1.172-1.172 1.172zM10 5.937a4.106 4.106 0 00-4.102 4.102A4.106 4.106 0 0010 14.141a4.106 4.106 0 004.102-4.102A4.106 4.106 0 0010 5.938zm0 0a4.106 4.106 0 00-4.102 4.102A4.106 4.106 0 0010 14.141a4.106 4.106 0 004.102-4.102A4.106 4.106 0 0010 5.938zm0 0a4.106 4.106 0 00-4.102 4.102A4.106 4.106 0 0010 14.141a4.106 4.106 0 004.102-4.102A4.106 4.106 0 0010 5.938z"/></svg>