<svg xmlns="http://www.w3.org/2000/svg" viewBox="0 0 13 22"><defs><filter id="a"><feColorMatrix in="SourceGraphic" values="0 0 0 0 0.156863 0 0 0 0 0.552941 0 0 0 0 0.529412 0 0 0 1.000000 0"/></filter></defs><g fill="none" fill-rule="evenodd" filter="url(#a)" transform="translate(-95)"><path fill="#FFF" fill-rule="nonzero" d="M107.647 10.142L97.8.352A1.2 1.2 0 0096.944 0c-.324 0-.628.125-.856.351l-.725.721a1.2 1.2 0 000 1.702l8.269 8.221-8.278 8.23c-.228.227-.354.53-.354.852 0 .322.126.624.354.85l.725.722c.228.226.531.351.856.351.324 0 .628-.125.856-.351l9.856-9.8a1.19 1.19 0 00.353-.853c0-.324-.125-.627-.353-.854z"/></g></svg>